<svg id="GD001" height="512" viewBox="0 0 512 512" width="512" xmlns="http://www.w3.org/2000/svg" xmlns:xlink="http://www.w3.org/1999/xlink"><linearGradient id="New_Gradient_Swatch_2" gradientUnits="userSpaceOnUse" x1="240" x2="240" y1="40.485" y2="420.088"><stop offset="0" stop-color="#fc5c7d"/><stop offset=".129" stop-color="#f35e85"/><stop offset=".343" stop-color="#d9659b"/><stop offset=".616" stop-color="#b070bf"/><stop offset=".934" stop-color="#777ff0"/><stop offset="1" stop-color="#6a82fb"/></linearGradient><linearGradient id="New_Gradient_Swatch_2-2" x1="88" x2="88" xlink:href="#New_Gradient_Swatch_2" y1="40.485" y2="420.088"/><linearGradient id="New_Gradient_Swatch_2-3" x1="120" x2="120" xlink:href="#New_Gradient_Swatch_2" y1="40.485" y2="420.088"/><linearGradient id="New_Gradient_Swatch_2-4" x1="152" x2="152" xlink:href="#New_Gradient_Swatch_2" y1="40.485" y2="420.088"/><linearGradient id="New_Gradient_Swatch_2-5" x1="352" x2="352" xlink:href="#New_Gradient_Swatch_2" y1="40.485" y2="420.088"/><linearGradient id="New_Gradient_Swatch_2-6" x1="160" x2="160" xlink:href="#New_Gradient_Swatch_2" y1="40.485" y2="420.088"/><linearGradient id="New_Gradient_Swatch_2-7" x1="176" x2="176" xlink:href="#New_Gradient_Swatch_2" y1="40.485" y2="420.088"/><linearGradient id="New_Gradient_Swatch_2-8" x1="104" x2="104" xlink:href="#New_Gradient_Swatch_2" y1="40.485" y2="420.088"/><linearGradient id="New_Gradient_Swatch_2-9" x1="344" x2="344" xlink:href="#New_Gradient_Swatch_2" y1="40.485" y2="420.088"/><linearGradient id="New_Gradient_Swatch_2-10" x1="328" x2="328" xlink:href="#New_Gradient_Swatch_2" y1="40.485" y2="420.088"/><linearGradient id="New_Gradient_Swatch_2-13" x1="272" x2="272" xlink:href="#New_Gradient_Swatch_2" y1="40.485" y2="420.088"/><linearGradient id="New_Gradient_Swatch_2-14" x1="456" x2="456" xlink:href="#New_Gradient_Swatch_2" y1="40.485" y2="420.088"/><linearGradient id="New_Gradient_Swatch_2-16" x1="136.286" x2="136.286" xlink:href="#New_Gradient_Swatch_2" y1="40.485" y2="420.088"/><path d="m64 392v-296h352v184h16v-232a32.036 32.036 0 0 0 -32-32h-320a32.036 32.036 0 0 0 -32 32v344a32.036 32.036 0 0 0 32 32h192v-16h-192a16.019 16.019 0 0 1 -16-16zm16-360h320a16.019 16.019 0 0 1 16 16v32h-352v-32a16.019 16.019 0 0 1 16-16z" fill="url(#New_Gradient_Swatch_2)"/><path d="m80 48h16v16h-16z" fill="url(#New_Gradient_Swatch_2-2)"/><path d="m112 48h16v16h-16z" fill="url(#New_Gradient_Swatch_2-3)"/><path d="m144 48h16v16h-16z" fill="url(#New_Gradient_Swatch_2-4)"/><path d="m472 344h-25.965l-8.507-29.772a32.036 32.036 0 0 0 -35.759-22.817l-116.453 18.389a25.239 25.239 0 0 0 -19.552 34.2h-17.764a8.005 8.005 0 0 0 -4.438 1.344l-21.984 14.656h-13.578v16h13.578l21.984 14.656a8.005 8.005 0 0 0 4.438 1.344h36.686l19.448 19.447a43.214 43.214 0 0 0 27.178 36.894l12.688 5.075v42.584h16v-48a8 8 0 0 0 -5.028-7.428l-17.718-7.087a27.315 27.315 0 0 1 -17.254-25.485 8 8 0 0 0 -2.343-5.657l-27.029-27.03a8.97 8.97 0 0 1 6.343-15.313h3.023a9.008 9.008 0 0 1 4.011.947l59.256 29.628 23.082 23.082 11.314-11.314-10.343-10.343h44.686v104h16v-104h24a24 24 0 0 0 0-48zm-233.578 24 12-8h23.251a24.994 24.994 0 0 0 -.67 16h-22.581zm58.549-24h-7.716a9.255 9.255 0 0 1 -1.443-18.4l116.453-18.387a16.007 16.007 0 0 1 17.879 11.408l7.25 25.379h-42.08l10.343-10.343-11.314-11.314-21.656 21.657zm72.918 32-32-16h110.111v16zm102.111 0h-8v-16h8a8 8 0 0 1 0 16z" fill="url(#New_Gradient_Swatch_2-5)"/><path d="m232 256v-128a8 8 0 0 0 -8-8h-128a8 8 0 0 0 -8 8v128a8 8 0 0 0 8 8h128a8 8 0 0 0 8-8zm-72-40a24.028 24.028 0 0 1 24 24v8h-48v-8a24.028 24.028 0 0 1 24-24zm-16-32a16 16 0 1 1 16 16 16.019 16.019 0 0 1 -16-16zm72 64h-16v-8a39.994 39.994 0 0 0 -17.632-33.146 32 32 0 1 0 -44.736 0 39.994 39.994 0 0 0 -17.632 33.146v8h-16v-112h112z" fill="url(#New_Gradient_Swatch_2-6)"/><path d="m128 280h96v16h-96z" fill="url(#New_Gradient_Swatch_2-7)"/><path d="m96 280h16v16h-16z" fill="url(#New_Gradient_Swatch_2-8)"/><path d="m296 136h96v16h-96z" fill="url(#New_Gradient_Swatch_2-9)"/><g fill="url(#New_Gradient_Swatch_2-10)"><path d="m264 168h128v16h-128z"/><path d="m264 200h128v16h-128z"/><path d="m264 232h128v16h-128z"/></g><path d="m264 136h16v16h-16z" fill="url(#New_Gradient_Swatch_2-13)"/><path d="m448 56h16v160h-16z" fill="url(#New_Gradient_Swatch_2-14)"/><path d="m448 232h16v16h-16z" fill="url(#New_Gradient_Swatch_2-14)"/><path d="m91.61 345.435-11.038 27.594 14.856 5.942 9.384-23.459 4.993 9.987a14 14 0 0 0 20.288 5.387l12.887-8.592 9.605 9.605a13.907 13.907 0 0 0 9.9 4.1h29.515v-15.999h-28.687l-10.177-10.179a14.037 14.037 0 0 0 -17.666-1.749l-12.37 8.244-5.972-11.944a14 14 0 0 0 -25.521 1.063z" fill="url(#New_Gradient_Swatch_2-16)"/></svg>